<?xml version="1.0" encoding="utf-8"?>
<!-- Generator: Adobe Illustrator 19.2.1, SVG Export Plug-In . SVG Version: 6.00 Build 0)  -->
<svg version="1.1" id="Layer_1" xmlns="http://www.w3.org/2000/svg" xmlns:xlink="http://www.w3.org/1999/xlink" x="0px" y="0px"
	 viewBox="0 0 130.7 121.2" style="enable-background:new 0 0 130.7 121.2;" xml:space="preserve">
<style type="text/css">
	.st0{fill:#FFFFFF;}
	.st1{fill-rule:evenodd;clip-rule:evenodd;fill:#7ab7d6;}
</style>

<g>
	<path class="st1" d="M31.3,38.9c0,0.2,0.1,0.4,0.2,0.5c0.1,0,0.2-0.1,0.2-0.1c-0.1-0.2-0.1-0.4-0.2-0.6
		C31.4,38.8,31.3,38.9,31.3,38.9z"/>
	<path class="st1" d="M31.4,34.6c0,0.1,0,0.1,0,0.2c0.1,0.3,0.2,0.5,0.4,0.8c0,0,0.1,0,0.1,0c-0.1-0.3-0.1-0.6-0.2-0.9
		C31.6,34.6,31.5,34.6,31.4,34.6z"/>
	<path class="st1" d="M28.8,34.4c0,0.1-0.1,0.2-0.1,0.2c0.1,0.2,0.3,0.3,0.4,0.4c0.1,0.1,0.2,0.4,0.4,0.4c0.2,0.1,0.5,0,0.4,0.3
		c0.1,0,0.2,0,0.2,0c0.1,0,0.1-0.2,0.2-0.2c0.5-0.1,0.5-0.4,0.4-0.6C30.2,34.3,29.4,34.6,28.8,34.4z"/>
	<path class="st1" d="M41.2,50.8c0.4-0.4-0.3-0.5-0.2-0.9c-0.1,0.2-0.2,0.4-0.2,0.4c-0.1-0.2-0.3-0.4-0.4-0.6c0,0.3,0,0.6,0.1,1
		C40.6,50.8,41,50.9,41.2,50.8z"/>
	<path class="st1" d="M39.3,43.4c0.2,0.3,0.3,0.5,0.5,0.8c0,0,0,0,0.1,0c0-0.2-0.1-0.3-0.1-0.5C39.6,43.6,39.5,43.5,39.3,43.4
		C39.3,43.4,39.3,43.4,39.3,43.4z"/>
	<path class="st1" d="M55.4,26.3c-0.3,0-0.3,0.2-0.3,0.4c0.1,0.3,0,0.6,0.2,0.9c0.1,0.1,0,0.4,0.3,0.5c0.2,0.1,0.4,0.2,0.7,0.2
		c0.1,0,0.3-0.1,0.3-0.2c0-0.2-0.1-0.2-0.2-0.3c-0.1-0.1-0.4,0-0.5-0.2c0.1-0.1,0.2-0.1,0.3-0.1c0.2,0,0.3-0.2,0.3-0.3
		c0-0.2-0.2-0.2-0.3-0.1c-0.1,0-0.2,0-0.3-0.2c0.6-0.4,0.6-0.4,0-0.8c0,0-0.1-0.1-0.1-0.1c-0.2-0.1-0.3-0.2,0-0.3
		c0.3-0.1,0.2-0.3,0-0.4c-0.3-0.1-0.2-0.2-0.1-0.4c0.1-0.4,0.1-0.5-0.3-0.4c-0.1,0-0.2,0-0.4-0.1c-0.1-0.1-0.1-0.3-0.3-0.2
		c-0.2,0.1,0,0.3,0.1,0.4c0,0.1,0.1,0.1,0.1,0.2c0.1,0.2,0,0.6,0.4,0.5c0,0,0.1,0.2,0.1,0.2c0,0.1-0.1,0.1-0.2,0.1
		c-0.2,0-0.1,0.1-0.1,0.2C55.1,26.1,55.3,26.1,55.4,26.3z"/>
	<path class="st1" d="M55.4,32.6c0.3,0.2,0.6,0.4,0.9,0.4c0.2,0,0.5,0,0.7-0.1c0.3-0.2,0.5-0.7,0.2-0.9c-0.1,0-0.2-0.1-0.2,0
		c0.2,0.4-0.2,0.2-0.2,0.1c-0.4,0-0.7-0.1-1.1-0.1c-0.2,0-0.5,0-0.6,0.3C55,32.3,55.2,32.5,55.4,32.6z"/>
	<path class="st1" d="M56.9,33.8c-0.3-0.3-0.7-0.3-1.1-0.3c-0.2,0-0.2,0.1-0.2,0.2c0.2,0.4,0.5,0.6,0.9,0.5c0.1,0,0.2,0,0.3,0
		c0.1,0,0.3,0,0.3-0.1C57.1,33.9,57,33.9,56.9,33.8z"/>
	<path class="st1" d="M74.3,36.2c0.2-0.3,0.4-0.2,0.6-0.1c0.2,0.1,0.4,0.1,0.6,0.3c0.2,0.2,0.6,0.2,0.8,0.4c0,0,0.1,0,0.2,0
		c0.1-0.1,0-0.1-0.1-0.2c-0.1-0.1-0.2-0.2-0.3-0.2c-0.6-0.5-1.3-0.4-1.9-0.5c-0.1,0-0.2,0-0.3,0.1c0,0.1,0,0.2,0.1,0.3
		C74.1,36.2,74.3,36.3,74.3,36.2z"/>
	<path class="st1" d="M40.3,49.8C40.3,49.7,40.3,49.7,40.3,49.8C40.3,49.7,40.2,49.7,40.3,49.8C40.2,49.7,40.2,49.7,40.3,49.8
		C40.3,49.7,40.3,49.8,40.3,49.8z"/>
	<path class="st1" d="M39.7,43.7C39.7,43.7,39.7,43.7,39.7,43.7C39.7,43.7,39.7,43.7,39.7,43.7C39.7,43.7,39.7,43.7,39.7,43.7
		C39.7,43.7,39.7,43.7,39.7,43.7z"/>
	<path class="st1" d="M0,0v121.1h121.1V0H0z M120.1,120.1H1V1h119.1V120.1z"/>
	<path class="st1" d="M34.7,64.1h-7.4v23.2h7c8.1,0,10.2-5.6,10.2-12C44.5,68.4,41.1,64.1,34.7,64.1z"/>
	<path class="st1" d="M27.7,109l-0.3,0.3c0,0,0.1,0.1,0.1,0.1c0,0,0.1,0.1,0.1,0.1l0.3-0.3c0,0-0.1-0.1-0.1-0.1
		C27.8,109.1,27.7,109,27.7,109z"/>
	<path class="st1" d="M27.8,108.3c-0.1-0.1-0.2-0.2-0.3-0.3l-0.3-0.3c0,0-0.2,0.2-0.2,0.2c0,0,0.1,0,0.1,0.1l0.8,0.8
		c0,0,0.3,0.3,0.3,0.3c0,0,0.2-0.2,0.2-0.2C28.3,108.8,27.9,108.3,27.8,108.3z"/>
	<path class="st1" d="M28.6,108.6l0.3-0.3c0,0-0.2-0.2-0.3-0.3c0,0-0.1,0.1-0.1,0.1c0,0-0.1,0.1-0.1,0.1
		C28.3,108.4,28.6,108.6,28.6,108.6z"/>
	<path class="st1" d="M28.4,107.1l-1.3-1.4c0,0,0.3-0.3,0.3-0.3c0.1-0.1,0.3-0.3,0.3-0.3l0.7,0.7l-0.5,0.5c0,0,0.2,0.2,0.2,0.2
		c0,0,0.1-0.1,0.2-0.2c0.1-0.1,0.1-0.1,0.2-0.2c0,0,0.3-0.3,0.3-0.3l-1.1-1.1l-1.1,1.1l1.6,1.6L28.4,107.1z"/>
	<path class="st1" d="M27.4,105.7c0,0,0.2,0.2,0.3,0.3l0.3-0.3l-0.3-0.3C27.7,105.5,27.5,105.7,27.4,105.7z"/>
	<path class="st1" d="M93.3,109l-0.3,0.3c0,0,0.1,0.1,0.1,0.1c0,0,0.1,0.1,0.1,0.1l0.3-0.3c0,0-0.1-0.1-0.1-0.1
		C93.4,109.1,93.3,109,93.3,109z"/>
	<path class="st1" d="M93.4,108.3c-0.1-0.1-0.2-0.2-0.3-0.3l-0.3-0.3c0,0-0.2,0.2-0.2,0.2c0,0,0.1,0,0.1,0.1l0.8,0.8
		c0,0,0.3,0.3,0.3,0.3c0,0,0.2-0.2,0.2-0.2C93.9,108.8,93.5,108.3,93.4,108.3z"/>
	<path class="st1" d="M92.2,108.8l-1.3-1.3c0,0,0.4-0.5,0.5-0.5c0,0,0.1-0.2,0.2-0.2l0.5,0.5l0.2-0.2c0,0-0.6-0.6-0.7-0.7
		c0,0-0.2,0.2-0.3,0.3l-0.5,0.5c0,0-0.3,0.2-0.3,0.3L92,109L92.2,108.8z"/>
	<path class="st1" d="M91.5,107.2l-0.3,0.3c0,0,0.2,0.2,0.3,0.3l0.3-0.3C91.8,107.5,91.6,107.3,91.5,107.2z"/>
	<path class="st1" d="M91.3,109.3l0.3,0.3c0,0,0.2-0.2,0.3-0.3l-0.3-0.3C91.5,109,91.3,109.2,91.3,109.3z"/>
	
		<rect x="92.2" y="108.2" transform="matrix(0.7084 -0.7058 0.7058 0.7084 -49.5405 96.8121)" class="st1" width="0.4" height="0.4"/>
	<path class="st1" d="M94.2,108.6l0.3-0.3c0,0-0.2-0.2-0.3-0.3c0,0-0.1,0.1-0.1,0.1c0,0-0.1,0.1-0.1,0.1
		C93.9,108.4,94.1,108.6,94.2,108.6z"/>
	<path class="st1" d="M93.3,107.2c0,0-0.3,0.2-0.3,0.3l0.3,0.3c0,0,0.3-0.2,0.3-0.3L93.3,107.2z"/>
	<path class="st1" d="M93.1,108.8l-0.2-0.2c0,0-1.2,1.2-1.4,1.3c-0.1,0-0.6-0.6-0.7-0.7c0,0,0.4-0.4,0.5-0.5c0,0-0.2-0.2-0.2-0.2
		c0,0-0.5,0.5-0.5,0.5c0,0-0.1,0.1-0.2,0.2l1.1,1.1L93.1,108.8C93,108.8,93,108.8,93.1,108.8z"/>
	<path class="st1" d="M91.7,108c0,0,0.2,0.2,0.2,0.2c0,0,0.1-0.1,0.1-0.1l0.4-0.4c0.1-0.1,0.2-0.2,0.3-0.3c0,0,0.3-0.3,0.3-0.3
		c0,0-0.2-0.2-0.2-0.2c0,0-0.5,0.5-0.6,0.6c-0.1,0.1-0.2,0.2-0.3,0.3C92,107.7,91.7,107.9,91.7,108z"/>
	<path class="st1" d="M95,107.7l0.3-0.3c0,0-0.2-0.2-0.3-0.3c0,0-0.3,0.2-0.3,0.3C94.8,107.5,95,107.7,95,107.7z"/>
	<path class="st1" d="M93.5,108l0.2,0.2l1.4-1.3l0.7,0.7l-0.5,0.5c0,0,0.2,0.2,0.2,0.2l0.7-0.7l-1.1-1.1L93.5,108z"/>
	<path class="st1" d="M94.6,107.7c0,0-0.1,0.1-0.1,0.1c0,0-0.1,0.1-0.1,0.1l1.3,1.4l-0.7,0.7c0,0-0.1-0.1-0.1-0.1
		c-0.1-0.1-0.3-0.3-0.4-0.4l-0.1,0.1c0,0-0.1,0.1-0.1,0.1c0,0,0.1,0.1,0.1,0.1l0.3,0.3c0,0,0.1,0.1,0.1,0.1c0,0,0.1,0.1,0.1,0.1
		c0,0,0,0,0,0c0,0,0,0,0,0c0,0,0.7-0.7,0.8-0.8l0.3-0.3c0,0-0.1-0.1-0.1-0.1l-0.7-0.7C95.3,108.4,94.6,107.7,94.6,107.7z"/>
	<path class="st1" d="M93.3,111.3l0.3-0.3c0,0-0.2-0.3-0.3-0.3c0,0,0,0-0.1,0.1l-0.1,0.1c0,0,0,0-0.1,0.1
		C93,111,93.2,111.2,93.3,111.3z"/>
	<path class="st1" d="M92.8,109.5l-0.2,0.2L94,111l-0.7,0.7l-0.7-0.7c0,0,0.4-0.4,0.5-0.5c-0.1-0.1-0.1-0.1-0.2-0.2
		c0,0-0.7,0.6-0.7,0.7l1,1c0,0,0,0.1,0.1,0.1l0.5-0.5c0.1-0.1,0.2-0.2,0.3-0.3c0,0,0.1-0.1,0.1-0.1c0,0,0.1-0.1,0.1-0.1
		c0,0-0.1-0.1-0.1-0.1l-0.7-0.7C93.5,110.2,92.8,109.5,92.8,109.5z"/>
	<path class="st1" d="M94.8,108.8C94.8,108.7,94.8,108.7,94.8,108.8c-0.1-0.1-0.2-0.2-0.2-0.2c0,0-0.5,0.5-0.6,0.6
		c-0.1,0.1-0.6,0.5-0.6,0.6l0.2,0.2l0.9-0.9C94.6,109,94.8,108.8,94.8,108.8z"/>
	<path class="st1" d="M95,109.5l0.3-0.3c0,0-0.2-0.2-0.3-0.3l0,0c0,0,0,0,0,0c0,0,0,0-0.1,0.1l-0.1,0.1
		C94.8,109.3,95,109.5,95,109.5z"/>
	<path class="st1" d="M25.7,109.3l0.3,0.3c0,0,0.2-0.2,0.3-0.3l-0.3-0.3C25.9,109,25.7,109.2,25.7,109.3z"/>
	
		<rect x="26.6" y="108.2" transform="matrix(0.7084 -0.7058 0.7058 0.7084 -68.6636 50.5235)" class="st1" width="0.4" height="0.4"/>
	<path class="st1" d="M93,105.7c0,0,0.2,0.2,0.3,0.3l0.3-0.3l-0.3-0.3C93.3,105.5,93,105.7,93,105.7z"/>
	<path class="st1" d="M27.2,109.5l-0.2,0.2l1.3,1.4l-0.7,0.7L27,111c0,0,0.4-0.4,0.5-0.5c-0.1-0.1-0.1-0.1-0.2-0.2
		c0,0-0.7,0.6-0.7,0.7l1,1c0,0,0,0.1,0.1,0.1l0.5-0.5c0.1-0.1,0.2-0.2,0.3-0.3c0,0,0.1-0.1,0.1-0.1c0,0,0.1-0.1,0.1-0.1
		c0,0-0.1-0.1-0.1-0.1l-0.7-0.7C28,110.2,27.2,109.5,27.2,109.5z"/>
	<path class="st1" d="M27.7,111.3L28,111c0,0-0.2-0.3-0.3-0.3c0,0,0,0-0.1,0.1l-0.1,0.1c0,0,0,0-0.1,0.1
		C27.4,111,27.7,111.2,27.7,111.3z"/>
	<path class="st1" d="M26.6,108.8l-1.3-1.3c0,0,0.4-0.5,0.5-0.5c0,0,0.1-0.2,0.2-0.2l0.5,0.5l0.2-0.2c0,0-0.6-0.6-0.7-0.7
		c0,0-0.2,0.2-0.3,0.3l-0.5,0.5c0,0-0.3,0.2-0.3,0.3l1.6,1.6L26.6,108.8z"/>
	<path class="st1" d="M27.7,107.2c0,0-0.3,0.2-0.3,0.3l0.3,0.3c0,0,0.3-0.2,0.3-0.3L27.7,107.2z"/>
	<path class="st1" d="M26.1,108c0,0,0.2,0.2,0.2,0.2c0,0,0.1-0.1,0.1-0.1l0.4-0.4c0.1-0.1,0.2-0.2,0.3-0.3c0,0,0.3-0.3,0.3-0.3
		c0,0-0.2-0.2-0.2-0.2c0,0-0.5,0.5-0.6,0.6c-0.1,0.1-0.2,0.2-0.3,0.3C26.4,107.7,26.2,107.9,26.1,108z"/>
	<path class="st1" d="M25.9,107.2l-0.3,0.3c0,0,0.2,0.2,0.3,0.3l0.3-0.3C26.2,107.5,26,107.3,25.9,107.2z"/>
	<path class="st1" d="M27.5,108.8l-0.2-0.2c0,0-1.2,1.2-1.4,1.3c-0.1,0-0.6-0.6-0.7-0.7c0,0,0.4-0.4,0.5-0.5c0,0-0.2-0.2-0.2-0.2
		c0,0-0.5,0.5-0.5,0.5c0,0-0.1,0.1-0.2,0.2l1.1,1.1L27.5,108.8C27.4,108.8,27.5,108.8,27.5,108.8z"/>
	<path class="st1" d="M27.9,108l0.2,0.2l1.4-1.3l0.7,0.7l-0.5,0.5c0,0,0.2,0.2,0.2,0.2l0.7-0.7l-1.1-1.1L27.9,108z"/>
	<path class="st1" d="M29.3,108.8C29.2,108.7,29.2,108.7,29.3,108.8c-0.1-0.1-0.2-0.2-0.2-0.2c0,0-0.5,0.5-0.6,0.6
		c-0.1,0.1-0.6,0.5-0.6,0.6l0.2,0.2l0.9-0.9C29,109,29.2,108.8,29.3,108.8z"/>
	<path class="st1" d="M94,107.1l-1.3-1.4c0,0,0.3-0.3,0.3-0.3c0.1-0.1,0.3-0.3,0.3-0.3l0.7,0.7l-0.5,0.5c0,0,0.2,0.2,0.2,0.2
		c0,0,0.1-0.1,0.2-0.2c0.1-0.1,0.1-0.1,0.2-0.2c0,0,0.3-0.3,0.3-0.3l-1.1-1.1l-1.1,1.1l1.6,1.6L94,107.1z"/>
	<path class="st1" d="M29.5,107.7l0.3-0.3c0,0-0.2-0.2-0.3-0.3c0,0-0.3,0.2-0.3,0.3C29.2,107.5,29.4,107.7,29.5,107.7z"/>
	<path class="st1" d="M29.5,109.5l0.3-0.3c0,0-0.2-0.2-0.3-0.3l0,0c0,0,0,0,0,0c0,0,0,0-0.1,0.1l-0.1,0.1
		C29.2,109.3,29.4,109.5,29.5,109.5z"/>
	<path class="st1" d="M29,107.7c0,0-0.1,0.1-0.1,0.1c0,0-0.1,0.1-0.1,0.1l1.3,1.4l-0.7,0.7c0,0-0.1-0.1-0.1-0.1
		c-0.1-0.1-0.3-0.3-0.4-0.4l-0.1,0.1c0,0-0.1,0.1-0.1,0.1c0,0,0.1,0.1,0.1,0.1l0.3,0.3c0,0,0.1,0.1,0.1,0.1c0,0,0.1,0.1,0.1,0.1
		c0,0,0,0,0,0c0,0,0,0,0,0c0,0,0.7-0.7,0.8-0.8l0.3-0.3c0,0-0.1-0.1-0.1-0.1l-0.7-0.7C29.7,108.4,29,107.7,29,107.7z"/>
	<path class="st1" d="M80.4,106.8c-0.1-0.1-0.2-0.2-0.4-0.3c-0.1-0.1-0.3-0.1-0.5-0.1c-0.2,0-0.4,0.1-0.6,0.2
		c-0.2,0.1-0.3,0.3-0.4,0.4c-0.1,0.2-0.2,0.4-0.2,0.6c0,0.2,0.1,0.4,0.2,0.6c0.1,0.2,0.2,0.3,0.4,0.4c0.2,0.1,0.4,0.2,0.6,0.2
		c0.2,0,0.4-0.1,0.6-0.2c0.2-0.1,0.3-0.2,0.4-0.4c0.1-0.2,0.1-0.4,0.1-0.6c0-0.2,0-0.3-0.1-0.5C80.6,107.1,80.5,106.9,80.4,106.8z"
		/>
	<path class="st1" d="M76.5,106.8c-0.1-0.1-0.2-0.2-0.4-0.3c-0.1-0.1-0.3-0.1-0.5-0.1c-0.2,0-0.4,0.1-0.6,0.2
		c-0.2,0.1-0.3,0.3-0.4,0.4c-0.1,0.2-0.2,0.4-0.2,0.6c0,0.2,0.1,0.4,0.2,0.6c0.1,0.2,0.2,0.3,0.4,0.4c0.2,0.1,0.4,0.2,0.6,0.2
		c0.2,0,0.4-0.1,0.6-0.2c0.2-0.1,0.3-0.2,0.4-0.4c0.1-0.2,0.1-0.4,0.1-0.6c0-0.2,0-0.3-0.1-0.5C76.7,107.1,76.6,106.9,76.5,106.8z"
		/>
	<path class="st1" d="M117.7,3.4H3.4v114.4h114.4V3.4z M32.2,34.6c0.1,0.2,0.1,0.4-0.1,0.6c0,0-0.1,0-0.1,0.1c0,0.1,0,0.3,0.1,0.3
		c0.4,0.1,0.1,0.7,0.5,0.8c0,0,0,0,0,0c0,0,0,0,0,0c0.3,0,0.4,0.1,0.5,0.3c-0.1-0.1-0.3-0.1-0.4-0.2c0,0.1,0,0.1-0.1,0.2
		c0.2,0.1,0.4,0.2,0.7,0.3c0.1,0.1,0.1,0.2,0.2,0.3c0.1,0.1,0.1,0.2,0.1,0.3c-0.2-0.1-0.4-0.3-0.6-0.5c0,0.3-0.1,0.5-0.1,0.7
		c0,0.1,0,0.2,0,0.3c0,0.3-0.1,0.5-0.1,0.8c-0.4,0-0.6-0.5-0.9-0.7c0.1,0.4,0.3,0.6,0.4,0.9c0.2,0.4,0.4,0.9,0.6,1.3
		c0.1,0.1,0.2,0.3,0.3,0.4c0,0,0,0,0,0c0,0.1-0.1,0.2-0.1,0.3c0,0.1-0.1,0.1-0.1,0.2c0,0,0,0,0,0c-0.1,0.3-0.1,0.7,0.1,1.1
		c0.1,0.2-0.1,0.2-0.3,0.1c0.2,0.2,0.3,0.4,0.3,0.6c0,0.1,0,0.3,0.2,0.4l0,0c0,0,0,0.1,0,0.1c0,0.1,0,0.3,0,0.6c0,0-0.1,0-0.1,0
		c0-0.4-0.1-0.8-0.1-1.3c-0.6,0-0.9-0.2-1.1-0.7c-0.1-0.2-0.4-0.4-0.6-0.6c-0.1,0.2-0.2,0.4-0.2,0.5c0,0-0.1,0-0.1,0
		c0-0.2,0-0.4,0-0.6c0-0.2,0-0.4-0.3-0.5c-0.1,0-0.1-0.3-0.1-0.4c0.1-0.5,0.2-1.1,0.3-1.6c0.1-0.3,0.1-0.5-0.2-0.7
		c-0.1-0.1-0.1-0.2-0.2-0.3c0.3-0.1,0.7-0.1,1-0.1c-0.4-0.3-0.8-0.6-1-1c-0.1-0.1-0.2-0.3-0.4-0.3c0,0-0.1,0-0.1,0
		c-0.3,0-0.6,0-0.9-0.1c-0.1,0-0.2,0-0.2,0.1c0,0.4-0.2,0.7-0.1,1.1c0.2,0.1,0.4,0.1,0.6,0.1c0.4-0.1,0.5,0.2,0.6,0.4
		c-0.2,0-0.3,0.1-0.5,0.1c-0.2,0-0.3-0.1-0.5-0.1c0,0,0,0,0,0c0.1,0.6-0.1,0.7-0.5,0.4c-0.4-0.2-0.9-0.4-1.1-1
		c-0.1-0.3-0.4-0.5-0.3-0.9c0,0,0,0,0,0c0,0,0,0,0,0l0,0l0,0c-0.5-0.3-1-0.3-1.5-0.2c-0.4,0.1-0.9,0-1.5-0.1
		c0.1-0.1,0.1-0.2,0.1-0.3c0.6-0.5,1.3-0.9,1.9-1.4c0.5-0.4,1.1-0.2,1.6-0.2c0.3,0,0.7-0.1,0.9-0.3c0.4-0.2,0.8-0.5,1.3-0.4
		c0.4,0,0.8-0.2,1.3-0.3c0.3-0.1,0.7-0.3,1-0.4c0.1,0,0.2,0,0.3,0c0.1,0.3,0.1,0.6,0.2,0.9c-0.1,0.1-0.3,0.1-0.5,0.2
		c-0.1-0.1-0.1-0.2-0.1-0.3C32,34,32,34,32,34C32,34.2,32.1,34.4,32.2,34.6z M34.3,35.4c0.1-0.4,0.2-0.8,0.3-1.2
		c0.4,0.3,0.6,0.7,0.8,1.1c0.1,0.3,0.2,0.5,0.6,0.7c0.3,0.2,0.5,0.5,0.8,0.8c-0.1,0-0.2,0-0.3,0c-0.1-0.2-0.2-0.3-0.3-0.5
		c-0.1-0.1-0.2-0.2-0.3-0.1c-0.1,0.1-0.1,0.2,0,0.3c0.1,0.1,0.1,0.1,0.2,0.2c0,0.1,0.1,0.1,0.1,0.2c-0.1,0-0.2,0-0.3,0
		c0.2,0.4,0.3,0.9,0.5,1.3c0.2,0.5,0.6,1,0.8,1.5c0.2,0.4,0.3,0.8,0.4,1.2c-0.1-0.2-0.3-0.3-0.4-0.5c0,0-0.1-0.1-0.1-0.1
		c-0.4-0.7-0.8-1.4-1.2-2.1c-0.1-0.2-0.4-0.2-0.7-0.4c0,0-0.1,0.1-0.1,0.1c0-0.1,0-0.3,0-0.5c-0.1,0-0.1,0-0.2,0c0,0,0,0,0,0
		c0,0,0,0,0,0c0.1-0.7,0.1-0.7-1-0.9c0-0.1,0-0.2,0-0.2c0,0,0,0,0,0c0.1,0,0.3-0.2,0.2-0.3C34.4,35.8,34.4,35.6,34.3,35.4z
		 M34.2,44.8c0.6,0.3,0.4,0.8,0.5,1.2c0,0.2,0.1,0.3,0.2,0.5c0,0.1,0,0.2,0,0.3c0,0.4,0,0.9,0,1.4c0.7-0.3,0.2-0.9,0.6-1.2
		c0,0.5,0,1.1,0,1.7c0.1,0.1,0.4,0.2,0.7,0.4c0,0.1-0.2,0.6,0.4,0.3c0,0,0.2,0.1,0.3,0.1c-0.1-0.2-0.2-0.3-0.3-0.5c0,0,0.2,0,0.3,0
		c-0.1-0.3-0.1-0.7-0.2-1c0-0.3,0-0.7,0-1c0,0,0.1,0,0.1,0c0.1,0.4,0.3,0.8,0.3,1.3c0,0.3-0.2,0.5,0.3,0.7c0.3,0.1,0.4,0.1,0.5-0.1
		c0.5,0.1,0.7,0.9,1.4,0.5c0.2,0.3,0.2,0.4-0.2,0.4c-0.2,0-0.4,0.1-0.3,0.3c0.1,0.1,0.3,0.2,0.3,0.3c0,0.5,0.4,0.5,0.7,0.4
		c-0.1-0.2-0.1-0.5-0.2-0.8c0.1-0.1,0.3-0.1,0.4-0.2c-0.1,0-0.3-0.1-0.4-0.1c0.6,0,1.3-0.4,1.9,0.2c0-0.2,0.1-0.4,0.2-0.6
		c0.3,0.2,0.7,0.4,1.1,0.7c0-0.3,0-0.6,0-0.8c0.2,0.1,0.3,0.1,0.5,0.2c-0.1,0.3-0.1,0.3,0.5,0.5c-0.1,0.1-0.1,0.1-0.2,0.2
		c0.4,0,0,0.7,0.6,0.5c-0.1-0.3-0.2-0.7-0.3-1c0.5,0.5,1,0.1,1.3,0.1c0,0,0,0,0,0c0,0,0,0,0,0c0,0,0,0.1,0.1,0.1
		c0.3,0.4,0.8,0.9,1.4,1.3c-0.1,0-0.2,0.1-0.3,0.1c0,0.1,0,0.1,0.1,0.2c-0.7-0.1-0.7-0.1-0.7-0.5c0.1,0,0.1,0,0.2,0
		c0.1,0,0.1,0,0.2,0c0,0,0-0.1,0-0.1c-0.3,0-0.5,0-0.8-0.1c-0.2,0-0.5-0.1-0.7-0.2c0,0,0,0.1-0.1,0.1c0.1,0.1,0.2,0.2,0.2,0.2
		c-0.1,0.5,0.5,0.4,0.7,0.7c0.5-0.2,0.8,0.2,1.3,0.3c0,0,0,0,0,0c0,0.1,0,0.2,0,0.3c0.1,0.3,0.3,0.5,0.4,0.8c-0.2,0-0.4,0-0.6-0.1
		c0-0.2,0-0.3-0.1-0.5c-0.3,0.6-0.3,0.7-0.1,0.9c0,0,0,0,0,0.1c0,0.1,0,0.2,0.1,0.3c-0.2,0-0.4,0-0.5-0.1c0,0,0.1-0.1,0.1-0.1
		c-0.2-0.3-0.4-0.6-0.6-0.9c-0.2,0.3-0.3,0.5-0.4,0.6c-0.2,0.2-0.4,0.1-0.7,0.1c-1.7-0.4-3.3-1.2-4.9-1.9c-0.3-0.1-0.6-0.3-0.9-0.4
		c-0.4-0.1-0.9-0.2-1.1-0.7c0-0.1-0.1-0.1-0.2-0.1c0,0,0,0.1,0,0.1c-0.1,0-0.3,0.1-0.4,0.1c-0.7-0.2-1.5-0.5-2.2-0.8
		c-0.3-0.1-0.4-0.2-0.2-0.6c0.2-0.5,0.2-1,0.2-1.5c0-0.7-0.1-1.3-0.1-2c0-0.4,0-0.4-0.4-0.2c-0.1,0-0.2,0-0.3,0c0,0-0.3,0-0.7,0
		c0-0.1,0-0.1,0-0.2c0-0.1,0-0.2,0-0.3c0,0,0,0,0.1,0c0.5,0.2,0.6,0.1,0.6-0.4c0-0.2,0-0.4,0-0.6c0.1,0.1,0.2,0.2,0.2,0.4
		c0,0.1,0,0.3,0,0.4C34,44.7,34.1,44.8,34.2,44.8z M49.2,26.7c0-0.1-0.2-0.1-0.1-0.2c0,0,0.1-0.1,0.1-0.1c0.1,0,0.2,0.1,0.2,0.2
		c0,0.1,0.1,0.2,0.1,0.3c0.1,0.1,0.2,0.2,0.4,0.2c0.6,0,1.1,0.1,1.7,0.2c0.6,0.1,1.1,0.2,1.7,0.2c-0.9,0.1-1.8-0.2-2.7-0.1
		c0.2,0.2,0.4,0.2,0.5,0.2c1.1,0,2.2,0.4,3.3,0.5c0.1,0,0.2,0,0.3,0c0.2,0,0.4,0,0.4-0.3c0-0.2-0.2-0.2-0.4-0.3c-0.1,0-0.2,0-0.4,0
		c0.1-0.2,0.2-0.4,0.4-0.4c0.3,0,0.3-0.2,0.2-0.3c-0.1-0.2-0.1-0.7-0.4-0.5c-1.1,0.6-2.1,0.1-3.2,0.2c-0.4,0-0.9,0-1.4-0.1
		c0-0.1,0.1-0.2,0.2-0.2c0.4,0.2,0.8-0.1,1.2,0.1c0,0,0.1,0,0.1,0c0.1,0,0.3,0,0.4-0.2c0-0.2-0.2-0.1-0.3-0.2c0,0-0.1,0-0.1-0.1
		c0.1-0.2,0.2-0.1,0.4-0.1c0.4,0.1,0.8,0.1,1.1,0.4c0.1,0.1,0.2,0.1,0.2,0c0,0,0-0.2-0.1-0.4c0.3,0.6,0.8,0.3,1.1,0.5
		c0,0,0.1,0,0.1-0.1c0-0.1,0-0.2-0.1-0.2c-0.2-0.1-0.3-0.3-0.4-0.5c0-0.1-0.2-0.2-0.3-0.2c-0.4,0-0.9-0.1-1.3-0.1
		c-0.6,0-1.1-0.1-1.7-0.2c0.3-0.3,1-0.5,1.4-0.3c0.5,0.3,1,0.4,1.6,0.1c0.2-0.1,0.5,0,0.7-0.2c0.1-0.2,0.2-0.3,0.1-0.4
		c-0.1-0.2-0.2,0.1-0.2,0.1c-0.3,0-0.6,0.1-0.9,0c-0.3-0.1-0.7-0.2-1-0.2c0.4-0.2,0.9,0.1,1.4-0.1c-0.5-0.3-0.9-0.5-1.4-0.5
		c-0.3,0-0.4-0.2-0.4-0.4c0-0.3,0.3-0.2,0.4-0.2c0.1,0,0.2,0.1,0.3-0.1c-0.2-0.2-0.5-0.1-0.8-0.2c-0.4-0.1-0.4-0.3-0.2-0.6
		c0.1-0.1,0.1-0.2,0.2-0.3c0.1-0.2,0.1-0.4-0.1-0.6c-0.3-0.2-0.2-0.3,0.1-0.4c0.2-0.1,0.3-0.1,0.5-0.1c3,0,5.8,0.7,8.4,2.1
		c1.6,0.8,3.2,1.6,4.8,2.4c1.1,0.6,2,1.4,3,2.2c1.5,1.3,3.3,2.3,4.7,3.7c0.9,0.8,1.7,1.5,2.6,2.3c1.4,1.3,2.9,2.5,4.4,3.6
		c0.7,0.6,1.3,1.3,2.1,1.9c0.8,0.5,1.6,1,2.6,0.6c0.1,0,0.3-0.1,0.3,0c0.7,0.5,1.5,0.5,2.2,0.8c-0.1,0.2-0.3,0.2-0.5,0.2
		c-0.7,0.2-1.5,0.2-2.1,0.7c-0.1,0-0.2,0.1-0.2,0c-0.4-0.4-0.7,0-1,0c-0.2,0-0.3,0.1-0.3,0.3c0,0.4-0.3,0.6-0.6,0.8
		c-0.1,0.1-0.1,0.2-0.2,0.2c0.1-0.1,0.2-0.1,0.2-0.2c-0.5-0.1-1-0.4-1.4-0.7c-0.2-0.2-0.5-0.1-0.7-0.1c-0.2,0-0.1,0.2,0,0.4
		c0,0.1,0,0.1,0,0.2c-0.1,0.1-0.3,0-0.2,0.2c0.1,0.2,0.3,0.1,0.4,0.1c0.2,0,0.4,0,0.6,0.2c0.1,0.2,0.3,0.3,0.6,0.5l-0.7,0.6
		c0,0,0,0-0.1,0c0.2-0.4-0.1-0.7-0.1-1c0-0.1-0.3-0.1-0.3,0c-0.1,0.2-0.2,0.5-0.1,0.7c0.1,0.2,0.2,0.5,0.5,0.4l0,0l0,0l0,0
		c-0.1,0.2-0.3,0.3-0.5,0.5c-0.1,0.1-0.2,0.1-0.3,0c-0.5-0.6-1.3-0.9-1.6-1.7c-0.1-0.2-0.3-0.4-0.5-0.5c-0.3-0.1-0.5-0.2-0.7-0.4
		C76.8,41,76,41.1,75.2,41c-0.1,0-0.3,0-0.4-0.1c-0.4-0.2-0.8-0.4-1.3-0.2c-0.3,0.1-0.7-0.1-0.9-0.5c-0.1-0.1-0.1-0.2-0.3-0.3
		c-0.6-0.5-1.4-0.7-2.1-0.9c-0.3-0.1-0.6,0-1,0c-0.2,0-0.2,0.1-0.1,0.2c0.2,0.3,0.5,0.6,0.9,0.9c0.1,0.1,0.1,0.1,0.2,0.2
		c0.4,0.4,0.8,0.9,1.4,1.1c0.5,0.2,0.9,0.5,1.4,0.7c0.2,0.1,0.4,0.3,0.6,0.1c0.1-0.1,0.3,0.2,0.5,0.2c0-0.2-0.3-0.2-0.3-0.4
		c-0.1-0.5,0.2-0.9,0.7-0.9c0.1,0,0.2,0,0.2,0.1c0.3,0.3,0.3,0.4,0.8,0.5c0.1,0,0.1,0,0.1,0.1c-0.1,0.4,0.3,0.5,0.4,0.8
		c-0.1,0.1-0.2-0.1-0.3,0c0,0.2,0.4,0.2,0.3,0.5c-0.3-0.4-0.7-0.3-1.1-0.3c-0.8,0-1.5-0.1-2.3-0.3C72.1,42.2,71.6,42,71,42
		c-0.4,0-0.7-0.4-1.1-0.4c-0.1,0-0.3-0.1-0.3,0c-0.1,0.2-0.2,0-0.2,0c-0.1-0.2-0.3-0.3-0.6-0.3c0.1-0.2,0.4-0.2,0.6-0.3
		c0.1,0,0.2-0.1,0.2-0.2c0-0.1-0.1-0.2-0.2-0.2c-0.4,0-0.6-0.3-1-0.3c-0.1,0-0.3,0.1-0.2-0.1c0-0.2,0.1-0.2,0.3-0.1
		c0.1,0,0.2,0,0.3-0.1c-0.1-0.2-0.2-0.2-0.3-0.2c-0.4,0-0.8-0.2-1.1-0.5c-0.2-0.2-0.2-0.4-0.6-0.3c-0.2,0-0.1-0.3-0.1-0.4
		c0.1-0.2,0-0.4-0.1-0.5c-0.4-0.3-0.7-0.7-1.4-0.5c0-0.3,0.1-0.6,0.5-0.6c-0.5-0.4-0.7-1-1-1.5c-0.1-0.2-0.3-0.4-0.5-0.5
		c-0.2-0.1-0.4-0.3-0.5-0.5c-0.1-0.3-0.2-0.3-0.3,0c-0.2,0.4-0.5,0.2-0.6,0c-0.4-0.6-0.8-1.2-1-1.9c0-0.1-0.1-0.3-0.2-0.4
		c-0.2-0.3-0.8-0.5-1.1-0.3c-0.1,0.1,0.1,0.2,0,0.3c-0.2-0.1-0.4-0.1-0.6-0.2c-0.3-0.1-0.4-0.4-0.4-0.7c0-0.3,0.1-0.7-0.4-0.8
		c-0.1,0-0.1-0.2,0-0.3c0-0.2,0.2-0.1,0.2-0.1c0.3,0.1,0.5-0.1,0.7-0.1c0.1,0,0.2-0.1,0.2-0.2c0-0.1-0.1-0.1-0.2-0.1
		c-0.1,0-0.3,0-0.5-0.1c0.1-0.1,0.3-0.1,0.3-0.3c0-0.2-0.2-0.2-0.3-0.3c-0.2-0.1-0.4-0.2-0.3-0.4c0-0.2-0.5-0.4,0-0.6
		c0,0-0.1-0.1-0.2-0.2c-0.1-0.1-0.3,0-0.3-0.2c0-0.3,0.2-0.1,0.3-0.1c0.1,0,0.1,0,0.1-0.1c0-0.1-0.1-0.2-0.2-0.2
		c-0.4,0-0.5-0.3-0.7-0.6c-0.1-0.3-0.5-0.2-0.7-0.4c-0.2-0.2-0.4-0.3-0.5-0.5c0-0.1-0.1-0.1-0.1-0.2c-0.2,0.7,0,1.1,0.5,1.3
		c0.1,0,0.2,0.1,0.3,0.1c0.4-0.1,0.4,0.1,0.4,0.3c0.1,0.3,0.3,0.6,0.4,0.9c0.2,0.3,0.2,0.6,0.1,0.9c-0.2,0.6-0.2,1.2-0.3,1.8
		c0,0.2,0.2,0.5,0.3,0.8c0.4,0.9,0.6,1.8,0.5,2.7c0,0.3-0.2,0.7-0.1,1c0,0,0,0,0,0c-0.7,0.6,0.2,1.3-0.1,1.9c-0.1,0.2,0,0.5-0.1,0.7
		c-0.1,0.2,0,0.3,0.1,0.3c0.4,0.2,0.5,0.6,0.6,1c0,0.6,0.1,1.1,0.3,1.7c0,0.1,0.1,0.2,0,0.3c-0.1,0.1-0.3,0-0.4-0.1
		c-0.2-0.3-0.4-0.4-0.8-0.4c-0.3,0-0.5-0.2-0.4-0.6c0.1-0.4-0.4-1.2-0.9-1.3c-0.1,0-0.2,0-0.2,0.1c0.2,0.6-0.3,0.3-0.5,0.4
		c0.2-0.3,0.4-0.5-0.1-0.7c-0.3-0.1-0.6-0.2-0.9-0.3c-0.1,0-0.2-0.1-0.3-0.2c-0.2-0.1-0.2-0.4-0.2-0.6c0.1-0.2,0.3-0.1,0.4,0
		c0.4,0,0.7,0.2,1,0.5c0.1,0.2,0.3,0.3,0.5,0.4c0.1,0.1,0.3,0.2,0.5,0c0.4-0.3,0.4-1,0.1-1.3c-0.1-0.1-0.2-0.3-0.4-0.1
		c0,0-0.1,0-0.1,0c-0.4-0.4-1-0.2-1.4-0.3c-0.2-0.1-0.3-0.1-0.4-0.3c-0.1-0.3-0.3-0.3-0.4-0.1c-0.1,0.2-0.1,0.4-0.2,0.7
		c-0.4-0.3-0.4-0.8-0.5-1.2c0-0.2,0.1-0.3,0.2-0.2c0.3,0.1,0.7,0.3,0.7-0.3c0-0.1,0.1-0.1,0.1-0.1c0.1,0,0.1,0.1,0.1,0.2
		c-0.1,0.7-0.1,0.7,0.5,0.9c0.3,0.1,0.5,0.2,0.8,0.3c0.1,0.1,0.2,0.1,0.4,0.1c0.2-0.1,0.5-0.1,0.6-0.4c0.1-0.3-0.2-0.3-0.4-0.4
		c-0.2-0.2-0.4-0.3-0.6-0.4c-0.1-0.1-0.3-0.2-0.3-0.3c0-0.1,0.2-0.2,0.4-0.2c0.2,0,0.4-0.1,0.4-0.3c0.1-0.3,0-0.5-0.4-0.5
		c-0.4,0-0.7,0-0.9-0.4c0-0.1-0.1-0.1-0.1,0c-0.4,0.4-0.9,0.1-1.4,0.1c-0.3,0-0.7-0.1-1-0.1c0.2-0.4,0.1-0.5-0.2-0.7
		c-0.2-0.1-0.4-0.2-0.4-0.5c0-0.1-0.1-0.3-0.3-0.3c-0.2,0-0.2,0.2-0.2,0.4c0,0.3,0,0.5,0,0.8c-0.1,0.2-0.1,0.3-0.4,0.3
		c-1-0.2-2.1-0.1-3.1-0.2c-0.5-0.1-1.1-0.1-1.6-0.1c-0.5,0-0.9-0.5-0.9-1c0.1-0.5,0.1-0.5-0.4-0.4c-0.2,0.1-0.3-0.1-0.3-0.3
		c0-0.5-0.3-1-0.4-1.5c-0.1-0.3-0.5-0.4-0.7-0.2c-0.5,0.4-0.8,1-0.8,1.6c0,0.4,0,0.8,0,1.2c0,0.2,0.1,0.3,0.1,0.4
		c-0.8,0.1-0.9,0-0.8-0.7c0-0.7-0.2-1.1-0.9-1.4c-0.4-0.2-0.5-0.8-0.2-1.1c0.3-0.3,0.5-0.8,1.1-0.9c0,0,0.1,0,0.1,0
		c0.1-0.7,0.8-0.7,1.2-1.1c0.1-0.1,0.3,0,0.4,0.1c0.2,0.2,0.4,0.1,0.4-0.1c0.1-0.6,0.4-1,0.8-1.3c0.1-0.1,0.2-0.2,0.4-0.2
		c0.4-0.1,0.9-0.2,1.1-0.7c0,0,0,0,0,0c0.3-0.2,1.2,0,1.3,0.3c0.1,0.3,0.4,0.2,0.6,0.5C49.4,26.9,49.3,26.8,49.2,26.7z M96.4,97.6v1
		H24.6v-1H96.4z M24.6,89.5V61.8h10.1c8.7,0,12.4,5.5,12.4,13.4c0,7.7-3.4,14.4-12.2,14.4H24.6z M49.7,38.9
		c-0.9-0.1-1.8-0.1-2.8-0.2c-0.1,0-0.2,0-0.4,0c0.2-0.2,0.2-0.5,0.2-0.8c0-0.2,0.1-0.3,0.3-0.3c0.3,0,0.6,0.1,0.9,0.1
		c0.6,0.1,1.2-0.2,1.8-0.2c0,0,0.1-0.1,0.2-0.2c-0.8-0.1-1.6,0-2-0.8l0,0c0.1-0.2,0.3-0.4,0.5-0.3c0.3,0.1,0.5,0.1,0.2-0.4
		c0.1,0.2,0.6-0.2,0.5,0.3c0,0.1,0.2,0.1,0.3,0.1c0.3,0,0.6-0.1,0.9,0.2c0.1,0.1,0.3-0.1,0.5-0.1c0,0.9,0,1.8,0.3,2.8
		c0.2-0.4,0-0.8,0-1.1c0-0.1-0.1-0.3,0-0.4c0.1-0.1,0.2,0.1,0.3,0.1c0.1,0.1,0.3,0.1,0.4,0.1c0.3-0.1,0.5,0.1,0.7,0.1
		c0.1-0.1-0.1-0.3,0.1-0.3c0.1,0,0.1-0.1,0.1-0.3c-0.1-0.1-0.2-0.2-0.3-0.1c-0.2,0.1-0.4,0-0.6-0.1c-0.2-0.1-0.3-0.3-0.3-0.5
		c0-0.1,0.1-0.2,0.2-0.2c0.1,0,0.1,0.1,0.1,0.2c0,0.3,0.1,0.2,0.3,0.1c0.1,0,0.1-0.1,0.2-0.2c0.7-0.3,0.9-0.2,1,0.5
		c0.1,0.4,0.2,0.7,0.3,1.1c0.1,0.2,0.1,0.5,0,0.7c-0.2-0.1-0.4-0.2-0.5-0.3c-0.1-0.1-0.1-0.4-0.3-0.3c-0.2,0.1-0.4,0.2-0.4,0.5
		c0,0.1,0.1,0.4-0.1,0.4c-0.2,0-0.4,0-0.5-0.2c-0.1-0.3-0.4-0.4-0.6-0.6c0,0.4,0.1,0.6,0.3,0.9c0.2,0.4,0.3,0.2,0.5,0.1
		c0.2-0.1,0.5,0,0.7,0.1c0.2,0.2,0.3,0.5,0.3,0.8c0,0.1-0.1,0.2-0.2,0.1c-0.2-0.1-0.4-0.2-0.7-0.3c-0.2,0-0.2-0.4-0.4-0.2
		c-0.1,0.1-0.5,0.1-0.4,0.5c0.1,0.3,0.2,0.5,0.5,0.5c0.4,0,0.4,0.3,0.5,0.6c0,0.2-0.1,0.2-0.2,0.2c-0.7-0.1-1.1,0.1-1.4-0.8
		c0-0.1-0.1-0.1-0.1-0.1c-0.1,0-0.1,0.1-0.1,0.2c0.1,0.2,0.1,0.4,0.3,0.6c-0.5,0-1-0.1-1.4-0.1c-0.2,0-0.4-0.1-0.6,0.1c0,0,0,0,0,0
		c-0.3-0.4-0.8-0.2-1.1-0.4c0.7-0.2,1.4-0.2,2-0.1c0.2,0,0.4,0,0.4-0.2c0-0.2-0.2-0.2-0.3-0.3c-0.1,0-0.3,0-0.4,0
		c-0.1,0-0.4,0.1-0.2-0.2c0-0.1-0.1-0.1-0.2-0.1c-0.3-0.1-0.5-0.1-0.8-0.1c-0.1,0-0.1,0-0.2,0c-0.2,0-0.8-0.3-0.7-0.4
		c0.1-0.2,0.3-0.5,0.6-0.4c0.6,0.1,1.3-0.2,1.9-0.1c0.1,0,0.2-0.1,0.2-0.2C50,38.9,49.9,38.9,49.7,38.9z M74.4,47.1
		c-0.1-0.1-0.1-0.2-0.3-0.4c0.2,0.1,0.3,0.1,0.4,0.2c0.2,0.2,0.4,0.2,0.6,0c0.1-0.1,0.2-0.2,0.3-0.1c0.4,0.3,0.9,0.6,1.5,0.5
		c0.1,0,0.1,0.1,0.2,0.1c-0.2,0.2-0.5,0.3-0.7,0.5c-0.6,0.5-1.2,0.9-1.7,1.6c-0.1,0.1-0.2,0.1-0.3,0c-0.5-0.7-1.4-1-1.7-1.9
		c-0.1-0.2-0.1-0.5-0.4-0.6c-0.1,0-0.1-0.1,0-0.2c0-0.1,0.1-0.1,0.2-0.1c0.2,0.1,0.4,0.2,0.5,0.4c0.1,0.4,0.5,0.3,0.8,0.5
		c0,0,0.1,0,0.1,0c0.1-0.7,0.4-0.2,0.7-0.1C74.6,47.3,74.5,47.2,74.4,47.1z M77.9,53.2c0.1-0.1-0.1-0.3-0.1-0.5c0-0.1,0-0.2,0.1-0.3
		c0.1-0.1,0.3-0.1,0.5-0.3c0.2,0.2,0.6,0.4,1,0.6c0.1-0.1,0.1-0.2,0.2-0.4c0-0.1-0.1-0.2-0.2-0.2c-0.3-0.1-0.5-0.1-0.8-0.1
		c0-0.1,0-0.1,0-0.2c0.5,0.1,1.1,0.1,1.6,0.3c0.6,0.2,1,0.5,1.5,0.8c0-0.1,0.1-0.3,0.1-0.3c0.4,0,0.9,0.6,1,1.2
		c-0.7,0.1-1.3,0.1-2,0.2c-0.1,0-0.3,0-0.4,0.1c-0.5,0.5-1,0.6-1.5,0.2c-0.6-0.5-1.1-0.2-1.8,0c0.2-0.6,0-1-0.6-1.2
		c0.4-0.1,0.7-0.3,1.2-0.4c-0.1,0.3-0.2,0.5-0.3,0.8C77.6,53.3,77.8,53.3,77.9,53.2z M79.8,51C79.8,51,79.8,51,79.8,51
		c-0.4,0-0.8,0-1.1-0.1c0-0.1,0-0.2,0-0.2c0.1,0,0.1,0,0.2,0c0,0.1,0,0.1,0,0.2C79.2,51,79.5,51,79.8,51z M79.8,51.5
		C79.8,51.5,79.8,51.5,79.8,51.5c-0.3,0-0.7-0.1-1-0.2c0-0.1,0-0.1,0-0.2c0.1,0,0.1,0,0.2,0c0,0,0,0.1,0,0.1
		C79.3,51.3,79.6,51.4,79.8,51.5z M81,51.2c-0.2,0-0.3,0.1-0.5,0.1c0,0,0,0.1,0,0.1c0.2,0.1,0.4,0.1,0.6,0.2c0,0,0,0-0.1,0.1
		c-0.2-0.1-0.5-0.2-0.7-0.2c0,0,0-0.1,0-0.1c0.1,0,0.3-0.1,0.5-0.1c-0.2-0.1-0.4-0.1-0.6-0.2c0-0.1,0-0.1,0-0.2c0.1,0,0.3,0,0.5,0
		c-0.1,0-0.2,0-0.2,0c0,0.1,0,0.1,0,0.2C80.6,51.1,80.8,51.1,81,51.2z M83.2,46.3c0.1,0.1,0,0.4,0,0.7c-0.2-0.4-0.4-0.8-0.4-1.1
		c-0.1-0.4,0-0.7,0-1.1c0,0,0.1,0,0.1,0c0,0.2,0.1,0.4,0.1,0.6C83,45.7,82.8,46,83.2,46.3z M84.7,44.9c0.1,0.1,0.2,0.3,0.3,0.5
		c-0.1,0.1-0.2,0.2-0.2,0.3c0-0.1-0.1-0.2-0.1-0.2c0,0,0-0.1,0-0.1c0-0.1-0.1-0.3-0.2-0.4C84.5,44.9,84.7,44.9,84.7,44.9z
		 M84.6,42.7c0,0,0.1-0.1,0.1-0.1c0,0,0,0,0.1-0.1c0.5-0.2,1-0.4,1.6-0.1C85.8,42.6,85.2,42.7,84.6,42.7z M84.7,49.5
		c0.5,0,1.1,0.2,1.3-0.2c0.5,0.2,0.8,0.3,1.1,0.4c0.2,0.1,0.5,0,0.8,0.1c0.1,0,0.3,0.2,0.3,0.3c-0.5-0.5-1.1-0.2-1.6-0.2
		c-0.2,0-0.5,0.2-0.7,0c0,0-0.1,0-0.2,0.2c0.2,0,0.5,0.1,0.5,0.1c-0.3,0.1-0.8,0.2-1.3,0.3c-0.2,0-0.5-0.1-0.5-0.2
		c-0.3-0.5-0.7-0.7-1.2-0.7C83.6,49.5,84.2,49.4,84.7,49.5z M88.2,51.8C88.2,51.8,88.2,51.8,88.2,51.8c-0.4,0-0.8-0.1-1.2-0.2
		c0.2-0.1,0.4-0.1,0.6-0.1c-0.1,0-0.2,0-0.4,0.1C87.5,51.6,87.9,51.7,88.2,51.8z M87.7,45.6c0.3-0.2,0.5-0.3,0.8-0.4
		c0.1,0,0.2,0.3,0.4,0.5c-0.4,0-0.8,0-1.1,0.1C87.7,45.7,87.7,45.7,87.7,45.6z M83.4,48.7c-0.2-0.1-0.3-0.2-0.4-0.3
		c0,0.1-0.1,0.2-0.1,0.3c0-0.1-0.1-0.1-0.1-0.1c0-0.3,0-0.7,0.1-1.1c0.1,0.2,0.2,0.3,0.3,0.4c0.1,0.2,0.2,0.3,0.3,0.5
		c0.1,0.1,0.2,0.2,0.2,0.3C83.6,48.6,83.5,48.7,83.4,48.7z M83.5,52.4c0.1,0,0.2,0,0.2,0c0.3,0.3,0.6,0.2,0.9,0c0.1,0,0.2,0,0.3,0
		c0.1,0.3,0.3,0.6,0.4,0.8c0.1,0,0.1,0,0.2,0c0-0.1,0-0.2,0-0.4c0.3,0.1,0.6,0.2,0.9,0.4c-1.3,0.6-2.6,0.9-3.7-0.3
		C82.9,52.7,83.2,52.6,83.5,52.4z M75.4,51c-0.3,0.4-0.7,0.9-0.4,1.4c0,0,0,0,0,0.1c-0.1,0-0.2,0.1-0.2,0.1c0,0,0.1,0.1,0.1,0.1
		c0,0,0,0.1,0,0.1c0.3,0.2,0.6,0.4,0.9,0.6c0-0.1,0.1-0.2,0.1-0.4c0.4,0.3,0.7,0.5,1,0.8c-0.5,0.1-0.9,0.2-1.2,0.2
		c-0.1-0.5,0.3-0.4,0.6-0.4c-0.5,0-0.8-0.1-1.3,0c-0.2,0.1-0.5,0.1-0.7,0.1c-0.4,0-0.8,0-1.2-0.1c-0.4-0.1-0.6-0.1-0.9,0.1
		C72.4,52.8,74.7,50.9,75.4,51z M74.7,55c-0.3,0-0.4,0-0.4-0.3c0.4-0.1,0.8-0.2,1.2-0.3c0,0,0,0,0,0.1c-0.3,0.1-0.6,0.2-1,0.3
		C74.5,54.9,74.6,55,74.7,55z M72.3,54.9c-0.3,0.3-0.5,0.5-0.8,0.8h-0.4c0.3-0.3,0.7-0.6,1.1-0.9C72.2,54.9,72.3,54.9,72.3,54.9z
		 M70.6,55.3c-0.1-0.7,0.1-0.9,1-0.9C71.2,54.7,70.9,55,70.6,55.3z M70.7,61.8v2.3H54.1v10h15.6v2.2H54.1v11h16.8v2.3H51.4V61.8
		H70.7z M93.8,89.5V76.1H77.2v13.4h-2.7V61.8h2.7v12.1h16.6V61.8h2.6v27.7H93.8z M90.5,42.9c-1.2-0.2-2.4,0-3.5-0.6
		c0.1-0.2,0.2-0.4,0.2-0.6c-0.1,0-0.2,0-0.4,0c0.2-0.2,0.3-0.4,0.4-0.3c0.5,0.1,1,0.1,1.5,0.3c0.3,0.1,0.6,0.5,0.9,0.7
		c0.1,0.1,0.3,0.1,0.4,0.1c0.2,0,0.4,0.1,0.6,0.1C90.6,42.7,90.5,42.8,90.5,42.9z M46.4,36.4L46.4,36.4L46.4,36.4L46.4,36.4z M42,46
		c-0.5-0.2-1-0.3-1.5-0.5c0.1,0.2,0.1,0.3,0.2,0.5c-0.1-0.1-0.2-0.2-0.3-0.2c-0.1,0.1-0.2,0.2-0.4,0.4c0-0.6-0.3-0.7-0.8-0.6
		c-0.3,0-0.7-0.1-1.1-0.2c0.5-0.2,0.9-0.3,1.3-0.5c-0.3-0.6-0.7-1.1-0.9-1.7c-0.3-0.7-0.6-1.5-0.8-2.2c0.3,0.5,0.6,1.1,1,1.6
		c0.1,0.1,0.2,0.1,0.3,0.2c0.4,0.2,0.7,0.5,0.7,1c0.5,0.5,1,0.9,1.5,1.4c0.1,0.1,0.3,0.2,0.5,0.3C42,45.5,42.2,45.6,42,46z
		 M30.2,108.5c0.1,0.1,0.8,0.7,0.8,0.8l-1.5,1.5c0,0-0.8-0.8-0.9-0.9c0,0-0.3,0.2-0.3,0.3c0.1,0.1,0.3,0.3,0.4,0.4l0.3,0.3
		c0,0,0.1,0.1,0.1,0.1c0,0,0,0-0.1,0.1c0,0-1,1-1.1,1.1c-0.1,0.1-0.1,0.1-0.2,0.2c0,0-0.1,0.1-0.1,0.1c0,0-0.1,0.1-0.1,0.1
		c0,0-0.7-0.7-0.7-0.7c-0.2-0.2-0.5-0.5-0.7-0.7l0.9-0.9c0,0-0.2-0.2-0.3-0.3c0,0-0.4,0.4-0.4,0.4c-0.1,0.1-0.3,0.3-0.4,0.4
		l-1.5-1.5l0.9-0.9l-0.9-0.9l1.5-1.5l0.9,0.9l0.3-0.3c0-0.1-0.1-0.1-0.2-0.2l-0.4-0.4c0,0-0.1-0.1-0.1-0.1c0,0,0,0,0,0l-0.2-0.2
		c0,0,0.1-0.1,0.1-0.1l1.3-1.3c0,0,0.1-0.1,0.1-0.1l1.3,1.3c0,0,0.2,0.2,0.2,0.2c0,0-0.6,0.6-0.7,0.7c0,0-0.2,0.2-0.2,0.2l0.3,0.3
		c0,0,0.2-0.2,0.2-0.2c0.1-0.1,0.6-0.6,0.7-0.7c0,0,0.3,0.3,0.4,0.4l0.9,0.9c0.1,0.1,0.1,0.1,0.2,0.2c0,0-0.3,0.3-0.4,0.4l-0.5,0.5
		C30.1,108.4,30.2,108.4,30.2,108.5z M38.8,110.2c-0.1,0.2-0.3,0.4-0.5,0.5c-0.2,0.1-0.5,0.2-0.7,0.2c-0.3,0-0.5-0.1-0.7-0.2
		c-0.2-0.1-0.4-0.3-0.5-0.5c-0.1-0.2-0.2-0.5-0.2-0.7h0.5c0,0.2,0,0.3,0.1,0.5c0.1,0.1,0.2,0.3,0.3,0.3c0.1,0.1,0.3,0.1,0.5,0.1
		c0.2,0,0.3,0,0.5-0.1s0.3-0.2,0.4-0.3s0.1-0.3,0.1-0.5c0-0.1,0-0.3-0.1-0.4c-0.1-0.1-0.1-0.2-0.2-0.3s-0.2-0.1-0.3-0.2
		s-0.3-0.1-0.4-0.1c-0.2-0.1-0.4-0.1-0.5-0.2c-0.1,0-0.2-0.1-0.3-0.2c-0.3-0.2-0.4-0.5-0.4-0.9c0-0.3,0.1-0.5,0.2-0.7
		c0.1-0.2,0.3-0.3,0.5-0.5c0.2-0.1,0.4-0.2,0.7-0.2c0.2,0,0.5,0.1,0.7,0.2c0.2,0.1,0.4,0.3,0.5,0.5c0.1,0.2,0.2,0.4,0.2,0.7h-0.5
		c0-0.2-0.1-0.3-0.1-0.4c-0.1-0.1-0.2-0.2-0.3-0.3c-0.1-0.1-0.3-0.1-0.4-0.1c-0.2,0-0.3,0-0.4,0.1s-0.2,0.2-0.3,0.3
		c-0.1,0.1-0.1,0.3-0.1,0.4c0,0.2,0,0.3,0.1,0.4c0.1,0.1,0.2,0.2,0.3,0.2s0.3,0.1,0.5,0.2c0.3,0.1,0.4,0.1,0.6,0.2s0.2,0.1,0.4,0.2
		c0.1,0.1,0.3,0.3,0.3,0.4c0.1,0.2,0.1,0.4,0.1,0.6C39,109.8,38.9,110,38.8,110.2z M40.4,110.8H40v-4.8h0.5V110.8z M45.6,110.8h-0.5
		l-2.8-4.2v4.2h-0.5v-4.8h0.6l2.7,4v-4h0.5V110.8z M50.8,110.3c-0.2,0.2-0.5,0.4-0.8,0.5c-0.3,0.1-0.6,0.2-0.9,0.2
		c-0.3,0-0.7-0.1-1-0.2c-0.3-0.1-0.6-0.3-0.8-0.5c-0.2-0.2-0.4-0.5-0.5-0.8c-0.1-0.3-0.2-0.6-0.2-1c0-0.4,0.1-0.9,0.3-1.2
		c0.2-0.4,0.5-0.7,0.9-0.9c0.4-0.2,0.8-0.3,1.2-0.3c0.5,0,1,0.1,1.4,0.4c0.2,0.1,0.3,0.2,0.5,0.4c0.2,0.2,0.3,0.3,0.3,0.5h-0.5
		c-0.1-0.2-0.3-0.3-0.4-0.5c-0.2-0.1-0.4-0.2-0.6-0.3c-0.2-0.1-0.4-0.1-0.6-0.1c-0.4,0-0.7,0.1-1,0.3c-0.3,0.2-0.6,0.4-0.7,0.7
		c-0.2,0.3-0.3,0.6-0.3,1c0,0.4,0.1,0.7,0.3,1c0.2,0.3,0.4,0.6,0.7,0.7c0.3,0.2,0.6,0.3,1,0.3c0.3,0,0.6-0.1,0.9-0.2
		s0.5-0.4,0.7-0.6h0.5C51.2,109.8,51,110.1,50.8,110.3z M55,106.5h-2.1v1.7H55v0.4h-2.1v1.8H55v0.4h-2.6v-4.8H55V106.5z M61.1,110.8
		l-1.7-1.7c-0.4-0.4-0.7-1-0.7-1.7c0-0.6,0.2-1.2,0.7-1.7s1-0.7,1.7-0.7c0.5,0,0.9,0.1,1.3,0.4c0.1,0.1,0.2,0.2,0.4,0.3l1.7,1.7
		l-0.6,0.6l-1.7-1.7c-0.1-0.1-0.3-0.3-0.5-0.3c-0.2-0.1-0.4-0.1-0.6-0.1c-0.4,0-0.8,0.2-1.1,0.5c-0.3,0.3-0.5,0.7-0.5,1.1
		s0.2,0.8,0.5,1.1l1.7,1.7L61.1,110.8z M62.5,112.3l-0.6-0.6l0.6-0.6l0.6,0.6L62.5,112.3z M65.6,109.2l-1.7,1.7l-3.3-3.4l1.1-1.1
		c0.1,0.1,0.2,0.1,0.3,0.2l0.3,0.3l-0.6,0.6l2.2,2.2l1.1-1.1c0.3-0.3,0.5-0.7,0.5-1.1c0-0.4-0.2-0.8-0.5-1.1
		c-0.3-0.3-0.7-0.5-1.1-0.5c-0.2,0-0.3,0-0.5,0.1l-0.4-0.4c-0.1-0.1-0.1-0.1-0.2-0.2c0.3-0.2,0.7-0.3,1.1-0.3c0.6,0,1.2,0.2,1.7,0.7
		c0.4,0.4,0.7,1,0.7,1.7C66.3,108.1,66.1,108.7,65.6,109.2z M72.2,110.8h-0.5v-4.3H71v-0.4h1.3V110.8z M77.2,108.2
		c-0.1,0.2-0.1,0.3-0.2,0.4c-0.1,0.1-0.2,0.3-0.4,0.6l-1.1,1.7H75l1.1-1.7c-0.2,0.1-0.4,0.1-0.6,0.1c-0.3,0-0.5-0.1-0.8-0.2
		c-0.2-0.2-0.4-0.4-0.5-0.6c-0.1-0.3-0.2-0.5-0.2-0.8c0-0.2,0-0.4,0.1-0.6c0.1-0.2,0.2-0.4,0.3-0.5c0.3-0.3,0.7-0.5,1.2-0.5
		c0.2,0,0.4,0,0.6,0.1c0.2,0.1,0.4,0.2,0.5,0.4c0.1,0.2,0.3,0.3,0.3,0.5c0.1,0.2,0.1,0.4,0.1,0.6C77.3,107.8,77.3,108,77.2,108.2z
		 M81.1,108.2c-0.1,0.2-0.1,0.3-0.2,0.4c-0.1,0.1-0.2,0.3-0.4,0.6l-1.1,1.7h-0.6l1.1-1.7c-0.2,0.1-0.4,0.1-0.6,0.1
		c-0.3,0-0.5-0.1-0.8-0.2c-0.2-0.2-0.4-0.4-0.5-0.6c-0.1-0.3-0.2-0.5-0.2-0.8c0-0.2,0-0.4,0.1-0.6c0.1-0.2,0.2-0.4,0.3-0.5
		c0.3-0.3,0.7-0.5,1.2-0.5c0.2,0,0.4,0,0.6,0.1c0.2,0.1,0.4,0.2,0.5,0.4c0.1,0.2,0.3,0.3,0.3,0.5c0.1,0.2,0.1,0.4,0.1,0.6
		C81.2,107.8,81.2,108,81.1,108.2z M84.7,110.1c-0.1,0.2-0.3,0.4-0.6,0.6c-0.2,0.1-0.5,0.2-0.8,0.2c-0.3,0-0.5-0.1-0.8-0.2
		c-0.2-0.1-0.4-0.3-0.5-0.6c-0.1-0.2-0.2-0.5-0.2-0.8h0.5c0,0.3,0.1,0.5,0.2,0.6c0.1,0.1,0.2,0.3,0.4,0.4c0.2,0.1,0.3,0.1,0.5,0.1
		c0.2,0,0.4,0,0.5-0.1c0.2-0.1,0.3-0.2,0.4-0.4c0.1-0.2,0.1-0.3,0.1-0.5c0-0.2-0.1-0.4-0.2-0.6s-0.3-0.3-0.5-0.4c-0.1,0-0.1,0-0.2,0
		c-0.1,0-0.2,0-0.2,0c-0.1,0-0.2,0-0.2,0v-0.4l0.2,0c0.2,0,0.3,0,0.4-0.1c0.1-0.1,0.2-0.1,0.3-0.2c0.1-0.1,0.1-0.3,0.1-0.4
		c0-0.1,0-0.3-0.1-0.4s-0.2-0.2-0.3-0.3c-0.1-0.1-0.2-0.1-0.4-0.1c-0.2,0-0.4,0.1-0.5,0.2c-0.1,0.2-0.2,0.3-0.2,0.6h-0.5
		c0-0.2,0.1-0.4,0.2-0.6c0.1-0.2,0.2-0.3,0.4-0.5c0.2-0.1,0.4-0.2,0.6-0.2c0.2,0,0.4,0.1,0.6,0.2c0.2,0.1,0.3,0.3,0.4,0.4
		s0.2,0.4,0.2,0.6c0,0.2,0,0.4-0.1,0.5s-0.2,0.3-0.4,0.4c0.2,0.1,0.3,0.2,0.4,0.3c0.1,0.1,0.2,0.3,0.3,0.5c0.1,0.2,0.1,0.3,0.1,0.5
		C84.9,109.6,84.9,109.9,84.7,110.1z M95.8,108.5c0.1,0.1,0.8,0.7,0.8,0.8l-1.5,1.5c0,0-0.8-0.8-0.9-0.9c0,0-0.3,0.2-0.3,0.3
		c0.1,0.1,0.3,0.3,0.4,0.4l0.3,0.3c0,0,0.1,0.1,0.1,0.1c0,0,0,0-0.1,0.1c0,0-1,1-1.1,1.1c-0.1,0.1-0.1,0.1-0.2,0.2
		c0,0-0.1,0.1-0.1,0.1c0,0-0.1,0.1-0.1,0.1c0,0-0.7-0.7-0.7-0.7c-0.2-0.2-0.5-0.5-0.7-0.7l0.9-0.9c0,0-0.2-0.2-0.3-0.3
		c0,0-0.4,0.4-0.4,0.4c-0.1,0.1-0.3,0.3-0.4,0.4l-1.5-1.5l0.9-0.9l-0.9-0.9l1.5-1.5l0.9,0.9l0.3-0.3c0-0.1-0.1-0.1-0.2-0.2l-0.4-0.4
		c0,0-0.1-0.1-0.1-0.1c0,0,0,0,0,0l-0.2-0.2c0,0,0.1-0.1,0.1-0.1l1.3-1.3c0,0,0.1-0.1,0.1-0.1l1.3,1.3c0,0,0.2,0.2,0.2,0.2
		c0,0-0.6,0.6-0.7,0.7c0,0-0.2,0.2-0.2,0.2l0.3,0.3c0,0,0.2-0.2,0.2-0.2c0.1-0.1,0.6-0.6,0.7-0.7c0,0,0.3,0.3,0.4,0.4l0.9,0.9
		c0.1,0.1,0.1,0.1,0.2,0.2c0,0-0.3,0.3-0.4,0.4l-0.5,0.5C95.7,108.4,95.7,108.4,95.8,108.5z M113.7,53.1L101,41.8
		c-0.3-0.7-0.9-1.1-1.6-1.2l-1.1-0.1c-0.1,0-0.2-0.1-0.3-0.2l-0.4-0.8c-0.1-0.2-0.3-0.3-0.5-0.2l-1.5,0.4l-2.4-1.1
		c-0.1,0-0.1-0.1-0.2-0.1c-0.1,0-0.1,0-0.2,0.1c-0.3,0.2-0.8,0.5-2.4,1.4c0,0-0.1,0.1-0.3,0.1c-1.3-0.6-2.7-1-3.4-0.9
		c-1.7,0.3-3.4-1.9-3.7-2.4c-0.3-0.6-10-7.8-11.7-9.4c-1.7-1.6-4-4.2-11.9-7.1c-7.9-2.9-9,0-13.7,2.6c-4.7,2.6-0.7,1.6-6.4,4.7
		c-2.1,1.2-3.4,3.2-4.3,5.6c-0.3-0.2-0.5-0.1-0.7-0.3c-0.5-0.4,0-0.9-1.1-1.1c-0.4-0.1-0.7,0-1,0.3s-1.4,0.4-1.9,0.5
		c-2,0.4-1.7,0.8-2,0.8c-2.9-0.5-3.6,1-4.6,2c-1.3,1.2-4.6,5.2-4.6,5.2L7.4,52.4V7.4h106.4V53.1z"/>
</g>
</svg>
